<svg id="Capa_1" data-name="Capa 1" xmlns="http://www.w3.org/2000/svg" viewBox="0 0 94.69 112.06"><defs><style>.cls-1{fill:#58595b;}.cls-2{fill:#bcbec0;}.cls-3{fill:#808285;}.cls-4{fill:#fff;}</style></defs><path class="cls-1" d="M1390.65,525.74a3.08,3.08,0,0,1,2.09.65,2.26,2.26,0,0,1,.75,1.79,2.84,2.84,0,0,1-.39,1.49,2,2,0,0,1-1.24.88v0a1.66,1.66,0,0,1,.66.26,1.44,1.44,0,0,1,.41.44,2,2,0,0,1,.22.57,6.13,6.13,0,0,1,.11.65c0,.23,0,.46,0,.69a6,6,0,0,0,.07.69,4.16,4.16,0,0,0,.15.65,1.58,1.58,0,0,0,.29.54h-1.39a.77.77,0,0,1-.18-.39,3.94,3.94,0,0,1-.06-.56c0-.21,0-.42,0-.66a4.53,4.53,0,0,0-.08-.69c0-.23-.08-.44-.13-.65a1.52,1.52,0,0,0-.25-.54,1.23,1.23,0,0,0-.44-.37,1.65,1.65,0,0,0-.73-.14h-3v4h-1.24v-9.35Zm.26,4.24a1.79,1.79,0,0,0,.69-.25,1.41,1.41,0,0,0,.47-.51,1.71,1.71,0,0,0,.18-.83,1.68,1.68,0,0,0-.39-1.15,1.61,1.61,0,0,0-1.27-.45h-3.09V530h2.59A5,5,0,0,0,1390.91,530Z" transform="translate(-1372.22 -423.24)"/><path class="cls-1" d="M1401.54,525.74v1h-5.21v3h4.86v1h-4.86V534h5.25v1h-6.49v-9.35Z" transform="translate(-1372.22 -423.24)"/><path class="cls-1" d="M1408.59,535a4.42,4.42,0,0,1-1.64.32,4.36,4.36,0,0,1-1.87-.39,4.22,4.22,0,0,1-1.4-1,4.52,4.52,0,0,1-.88-1.5,5.25,5.25,0,0,1-.3-1.77,6.6,6.6,0,0,1,.28-1.94,4.79,4.79,0,0,1,.84-1.62,4.08,4.08,0,0,1,1.39-1.11,4.33,4.33,0,0,1,1.94-.41,5.63,5.63,0,0,1,1.43.18,3.64,3.64,0,0,1,1.2.56,3.31,3.31,0,0,1,.89,1,3.79,3.79,0,0,1,.49,1.41h-1.24a2.45,2.45,0,0,0-.34-.92,2.21,2.21,0,0,0-.62-.63,2.72,2.72,0,0,0-.83-.37,3.81,3.81,0,0,0-1-.12,2.84,2.84,0,0,0-2.45,1.24,3.91,3.91,0,0,0-.57,1.27,5.8,5.8,0,0,0-.18,1.46,4.71,4.71,0,0,0,.21,1.41,3.67,3.67,0,0,0,.62,1.19,3,3,0,0,0,1,.82,3,3,0,0,0,1.38.31,3.33,3.33,0,0,0,1.3-.24,2.66,2.66,0,0,0,1.53-1.62,3.18,3.18,0,0,0,.17-1.2h-3v-1h4.1v4.92h-.79l-.33-1.17A3.11,3.11,0,0,1,1408.59,535Z" transform="translate(-1372.22 -423.24)"/><path class="cls-1" d="M1417.16,525.74a3.08,3.08,0,0,1,2.09.65,2.26,2.26,0,0,1,.75,1.79,2.84,2.84,0,0,1-.39,1.49,2,2,0,0,1-1.24.88v0a1.66,1.66,0,0,1,.66.26,1.44,1.44,0,0,1,.41.44,2,2,0,0,1,.22.57,6.13,6.13,0,0,1,.11.65c0,.23,0,.46,0,.69a6,6,0,0,0,.07.69,4.16,4.16,0,0,0,.15.65,1.58,1.58,0,0,0,.29.54h-1.39a.77.77,0,0,1-.18-.39,3.94,3.94,0,0,1-.06-.56c0-.21,0-.42,0-.66a4.53,4.53,0,0,0-.08-.69c0-.23-.08-.44-.13-.65a1.52,1.52,0,0,0-.25-.54,1.23,1.23,0,0,0-.44-.37,1.65,1.65,0,0,0-.73-.14h-3v4h-1.24v-9.35Zm.26,4.24a1.79,1.79,0,0,0,.69-.25,1.41,1.41,0,0,0,.47-.51,1.71,1.71,0,0,0,.18-.83,1.68,1.68,0,0,0-.39-1.15,1.61,1.61,0,0,0-1.27-.45H1414V530h2.59A5,5,0,0,0,1417.42,530Z" transform="translate(-1372.22 -423.24)"/><path class="cls-1" d="M1428.05,525.74v1h-5.21v3h4.86v1h-4.86V534h5.25v1h-6.49v-9.35Z" transform="translate(-1372.22 -423.24)"/><path class="cls-1" d="M1434.15,527a2.64,2.64,0,0,0-1.59-.45,3.78,3.78,0,0,0-.77.08,2.06,2.06,0,0,0-.67.26,1.38,1.38,0,0,0-.47.49,1.52,1.52,0,0,0-.18.77,1,1,0,0,0,.26.7,1.89,1.89,0,0,0,.68.44,5.71,5.71,0,0,0,1,.28l1.09.24q.56.13,1.09.31a3.62,3.62,0,0,1,1,.48,2.27,2.27,0,0,1,.68.76,2.66,2.66,0,0,1-.08,2.43,2.73,2.73,0,0,1-.86.86,3.71,3.71,0,0,1-1.17.48,5.68,5.68,0,0,1-1.29.15,5.48,5.48,0,0,1-1.49-.2,3.66,3.66,0,0,1-1.23-.6,2.82,2.82,0,0,1-.84-1,3.28,3.28,0,0,1-.31-1.47h1.18a2.12,2.12,0,0,0,.23,1,2.08,2.08,0,0,0,.6.7,2.52,2.52,0,0,0,.87.41,4,4,0,0,0,1,.13,4.61,4.61,0,0,0,.84-.08,2.49,2.49,0,0,0,.77-.27,1.44,1.44,0,0,0,.76-1.35,1.17,1.17,0,0,0-.26-.79,1.87,1.87,0,0,0-.68-.49,4.92,4.92,0,0,0-1-.31l-1.09-.24q-.56-.12-1.09-.29a4,4,0,0,1-1-.43,2.07,2.07,0,0,1-.68-.69,2,2,0,0,1-.25-1.07,2.48,2.48,0,0,1,.29-1.22,2.51,2.51,0,0,1,.77-.85,3.44,3.44,0,0,1,1.09-.5,4.78,4.78,0,0,1,1.25-.16,5,5,0,0,1,1.33.17,3,3,0,0,1,1.08.54,2.6,2.6,0,0,1,.73.92,3.3,3.3,0,0,1,.29,1.33h-1.18A2,2,0,0,0,1434.15,527Z" transform="translate(-1372.22 -423.24)"/><path class="cls-1" d="M1441.73,525.74l3.65,9.35H1444l-1-2.81h-4l-1,2.81h-1.27l3.64-9.35Zm.86,5.49-1.56-4.36h0l-1.58,4.36Z" transform="translate(-1372.22 -423.24)"/><path class="cls-1" d="M1450.57,525.74a3.08,3.08,0,0,1,2.09.65,2.26,2.26,0,0,1,.75,1.79,2.84,2.84,0,0,1-.39,1.49,2,2,0,0,1-1.24.88v0a1.66,1.66,0,0,1,.66.26,1.44,1.44,0,0,1,.41.44,2,2,0,0,1,.22.57,6.13,6.13,0,0,1,.11.65c0,.23,0,.46,0,.69a6,6,0,0,0,.07.69,4.16,4.16,0,0,0,.15.65,1.58,1.58,0,0,0,.29.54h-1.39a.77.77,0,0,1-.18-.39,3.94,3.94,0,0,1-.06-.56c0-.21,0-.42,0-.66a4.53,4.53,0,0,0-.08-.69c0-.23-.08-.44-.13-.65a1.52,1.52,0,0,0-.25-.54,1.23,1.23,0,0,0-.44-.37,1.65,1.65,0,0,0-.73-.14h-3v4h-1.24v-9.35Zm.26,4.24a1.79,1.79,0,0,0,.69-.25,1.41,1.41,0,0,0,.47-.51,1.71,1.71,0,0,0,.18-.83,1.68,1.68,0,0,0-.39-1.15,1.61,1.61,0,0,0-1.27-.45h-3.09V530H1450A5,5,0,0,0,1450.83,530Z" transform="translate(-1372.22 -423.24)"/><circle class="cls-2" cx="47.35" cy="47.35" r="47.35"/><path class="cls-3" d="M1466.78,467.31c.07,1.08.13,2.17.13,3.28a47.35,47.35,0,0,1-94.69,0c0-1.1.05-2.19.13-3.28Z" transform="translate(-1372.22 -423.24)"/><path class="cls-4" d="M1412.33,454l1.22-.39a20.15,20.15,0,0,1,2.83-.63,21.38,21.38,0,0,1,10.76,1.15,22,22,0,0,1,11.74,10.42,22.6,22.6,0,0,1,2.56,8.78,23.24,23.24,0,0,1-1.26,9.63,23.81,23.81,0,0,1-8.94,11.68l-1,.68-1.11.64-1,.54-1.1.51a24.61,24.61,0,0,1-9.13,2,25.48,25.48,0,0,1-19.3-8.27c-.55-.58-1-1.14-1.38-1.63a10.29,10.29,0,0,0-1-1.24l-1-1,.42,1.31a15,15,0,0,0,2.05,3.26,26.47,26.47,0,0,0,4.17,4.34,27.26,27.26,0,0,0,6.72,4.11,27.8,27.8,0,0,0,9.17,2.2,28.14,28.14,0,0,0,10.59-1.34c.44-.16,6.46-2.66,10-5.85a29.11,29.11,0,0,0,7.26-9.73,29.73,29.73,0,0,0,.29-24,30.48,30.48,0,0,0-6.38-9.55,31,31,0,0,0-8.56-6.12,31.54,31.54,0,0,0-15.59-3.09,30.89,30.89,0,0,0-4.62.61l-1.37.31Z" transform="translate(-1372.22 -423.24)"/><polygon class="cls-4" points="36.56 15.87 26.58 32.96 46.36 33.06 36.56 15.87"/></svg>